<svg xmlns="http://www.w3.org/2000/svg" version="1.1" xmlns:xlink="http://www.w3.org/1999/xlink" xmlns:svgjs="http://svgjs.com/svgjs" width="1440" height="560" preserveAspectRatio="none" viewBox="0 0 1440 560">
    <g mask="url(&quot;#SvgjsMask1000&quot;)" fill="none">
        <rect width="1440" height="560" x="0" y="0" fill="#0e2a47"></rect>
        <path d="M0,520.789C99.533,521.714,192.707,483.561,279.833,435.429C371.964,384.532,467.569,329.095,516.08,235.686C565.6,140.335,560.736,27.917,546.799,-78.618C532.722,-186.22,521.784,-311.401,435.84,-377.658C350.283,-443.616,227.126,-395.945,119.753,-407.84C34.833,-417.247,-44.163,-447.758,-129.272,-440.259C-230.184,-431.368,-341.082,-428.612,-416.179,-360.621C-493.516,-290.603,-518.595,-179.935,-531.192,-76.374C-543.602,25.643,-533.263,130.634,-487.105,222.454C-441.895,312.389,-362.348,377.684,-276.509,430.257C-192.094,481.958,-98.985,519.869,0,520.789" fill="#0b2239"></path>
        <path d="M1440 980.703C1517.557 992.69 1590.377 938.499 1652.09 890.019 1709.951 844.566 1748.97 781.983 1778.663 714.662 1808.042 648.054 1824.243 577.856 1821.867 505.096 1819.276 425.731 1819.3310000000001 336.251 1764.435 278.876 1709.845 221.82100000000003 1620.406 222.02300000000002 1542.006 212.601 1474.432 204.48000000000002 1409.513 215.911 1342.567 228.17399999999998 1267.591 241.90800000000002 1180.718 234.726 1126.844 288.649 1072.483 343.06 1073.147 429.599 1064.924 506.072 1056.963 580.106 1040.718 661.148 1079.988 724.412 1118.438 786.354 1206.844 788.1 1266.2359999999999 830.381 1329.9180000000001 875.716 1362.746 968.7629999999999 1440 980.703" fill="#113255"></path>
    </g>
    <defs>
        <mask id="SvgjsMask1000">
            <rect width="1440" height="560" fill="#ffffff"></rect>
        </mask>
    </defs>
</svg>